<svg width="509" height="171" viewBox="0 0 509 171" fill="none" xmlns="http://www.w3.org/2000/svg">
<path d="M247.816 69.5867H269.533V157.208H247.816V69.5867Z" fill="#2C4D9A"/>
<path d="M247.816 112.52V23.648H296.315V43.6334H269.533V58.6894H295.384V78.6747H269.533V112.52H247.816Z" fill="#2C4D9A"/>
<path d="M355.582 23.6491L284.716 112.52H314.084L362.294 52.0598V112.52H384.944V23.6478L355.582 23.6491Z" fill="#2C4D9A"/>
<path d="M481.944 82.2754C495.405 80.0101 504.061 69.0821 504.061 54.4274C504.061 44.6981 499.932 35.7714 493.136 30.0461C487.142 25.1114 480.88 23.6474 465.824 23.6474H437.71V43.6341H467.686C477.014 43.6341 482.21 47.8994 482.21 55.7568C482.21 63.6194 476.881 68.2834 467.422 68.2834L437.71 68.2808V83.7408H459.432L480.08 112.521H506.062L481.944 82.2754Z" fill="#2C4D9A"/>
<path d="M100.806 63.2284H44.9203V82.4711H72.9337C70.671 91.8097 62.747 97.6111 52.1363 97.6111C35.5803 97.6111 24.687 85.8684 24.687 68.3177C24.687 53.1817 35.723 41.8604 50.439 41.8604C59.3483 41.8604 66.8483 46.2497 71.0936 54.1711H98.1203C92.7443 34.7897 72.6523 20.6377 51.1457 20.6377C22.5643 20.6377 0.632324 41.8604 0.632324 69.3097C0.632324 96.9031 22.5643 118.694 50.5776 118.694C79.3016 118.694 101.091 96.9031 101.091 68.0364C101.091 66.4831 100.948 65.4897 100.806 63.2284Z" fill="#F9B02C"/>
<path d="M139.987 44.8364C137.244 53.0538 135.859 62.3164 135.816 71.4631C143.891 72.0018 151.373 72.3231 158.759 72.4244V45.7738C152.807 45.6818 146.783 45.3764 139.987 44.8364Z" fill="#F9B02C"/>
<path d="M165.88 21.0201C165.329 20.9681 164.77 20.9348 164.213 20.9001V42.2548C169.794 42.2174 175.466 41.9801 181.777 41.5308C178.241 32.5521 172.952 25.1401 165.88 21.0201Z" fill="#F9B02C"/>
<path d="M157.251 20.9135C150.139 24.9908 144.812 32.3828 141.246 41.3655C147.578 41.8575 153.215 42.1415 158.759 42.2295V20.8308C158.252 20.8508 157.751 20.8802 157.251 20.9135Z" fill="#F9B02C"/>
<path d="M187.14 71.7571C187.128 62.5784 185.764 53.2704 183.031 45.009C176.263 45.501 170.205 45.7597 164.213 45.797V72.4597C171.693 72.4517 179.167 72.2144 187.14 71.7571Z" fill="#F9B02C"/>
<path d="M166.932 118.48C172.988 115.7 178.045 109.837 181.593 101.682C175.919 101.917 170.115 102.034 164.213 102.057V118.718C165.127 118.662 166.032 118.582 166.932 118.48Z" fill="#F9B02C"/>
<path d="M188.604 44.5695C191.362 52.9735 192.716 62.2749 192.748 71.4055C198.44 71.0189 204.425 70.5322 210.912 69.9335C210.912 69.9162 210.912 69.8975 210.912 69.8802C210.912 59.9415 208.054 50.8042 203.098 43.1642C197.825 43.7229 193.046 44.1909 188.604 44.5695Z" fill="#F9B02C"/>
<path d="M135.872 75.0305C135.987 78.4905 136.292 81.9105 136.796 85.2251C137.504 89.8718 138.572 94.1505 139.937 98.0225C146.283 98.2985 152.555 98.4451 158.759 98.4905V75.9731C151.364 75.8731 143.893 75.5598 135.872 75.0305Z" fill="#F9B02C"/>
<path d="M156.366 118.641C157.158 118.708 157.955 118.756 158.759 118.788V102.04C153.012 101.997 147.212 101.871 141.346 101.631C144.96 109.967 150.146 115.921 156.366 118.641Z" fill="#F9B02C"/>
<path d="M183.006 98.0643C184.38 94.1803 185.456 89.8856 186.164 85.2176C186.653 81.995 186.956 78.6723 187.08 75.3096C179.113 75.759 171.621 75.9976 164.213 76.0056V98.507C170.61 98.4816 176.886 98.343 183.006 98.0643Z" fill="#F9B02C"/>
<path d="M210.767 73.5241C204.365 74.1041 198.393 74.5827 192.689 74.9641C192.569 78.5214 192.273 82.0347 191.757 85.4227C191.084 89.8561 190.1 93.9654 188.843 97.7321C193.637 97.4467 198.373 97.1094 202.981 96.6694C207.392 89.9601 210.152 82.0787 210.767 73.5241Z" fill="#F9B02C"/>
<path d="M134.113 97.7206C132.859 93.9632 131.879 89.8579 131.207 85.4352C130.677 81.9379 130.378 78.3086 130.266 74.6339C124.366 74.1872 118.135 73.6379 111.393 72.9792C111.898 81.7806 114.647 89.8699 119.102 96.7286C124.141 97.1352 129.139 97.4512 134.113 97.7206Z" fill="#F9B02C"/>
<path d="M187.36 41.0972C191.474 40.7505 195.884 40.3265 200.722 39.8198C194.51 31.8332 185.818 25.8518 175.651 22.8812C180.714 27.6052 184.579 33.9425 187.36 41.0972Z" fill="#F9B02C"/>
<path d="M135.455 101.348C130.937 101.115 126.398 100.846 121.825 100.504C127.821 108.015 136.042 113.67 145.627 116.596C141.47 112.824 138.031 107.667 135.455 101.348Z" fill="#F9B02C"/>
<path d="M135.689 40.8925C138.563 33.5698 142.583 27.1178 147.866 22.3871C137.163 25.1085 128.038 31.1658 121.575 39.4605C126.737 40.0298 131.385 40.5031 135.689 40.8925Z" fill="#F9B02C"/>
<path d="M187.505 101.377C185.063 107.358 181.845 112.291 177.979 115.997C186.861 112.933 194.495 107.53 200.177 100.511C196.033 100.865 191.79 101.139 187.505 101.377Z" fill="#F9B02C"/>
<path d="M119.198 42.7962C114.288 50.3588 111.432 59.4455 111.315 69.3868C118.083 70.0508 124.326 70.6082 130.223 71.0588C130.291 61.9628 131.666 52.7122 134.436 44.3615C129.81 43.9388 124.794 43.4202 119.198 42.7962Z" fill="#F9B02C"/>
<path d="M160.709 0.0175153C134.534 0.0175153 112.318 12.9802 99.9518 33.0548C102.306 36.1255 104.337 39.4282 105.986 42.9202C115.905 23.0722 136.326 9.92418 160.766 9.92418C195.593 9.92418 222.697 36.5175 222.697 70.6228C222.697 104.583 195.593 131.186 160.766 131.186C136.012 131.186 115.232 117.563 105.481 97.3162C103.721 100.731 101.634 103.963 99.2505 106.988C111.5 127.588 134.128 141.094 160.709 141.094C201.226 141.094 232.76 110.142 232.76 70.6362C232.76 30.9562 201.226 0.0175153 160.709 0.0175153Z" fill="#F9B02C"/>
<path d="M400.002 23.648H422.65V112.52H400.002V23.648Z" fill="#2C4D9A"/>
<path d="M300.682 157.588C297.397 157.588 294.578 156.912 292.226 155.56C289.887 154.209 288.09 152.33 286.832 149.923C285.575 147.504 284.947 144.705 284.947 141.529C284.947 138.338 285.575 135.54 286.832 133.134C288.103 130.714 289.908 128.829 292.246 127.477C294.598 126.125 297.403 125.449 300.661 125.449C303.541 125.449 306.048 125.969 308.184 127.01C310.333 128.051 312.01 129.525 313.213 131.431C314.429 133.323 315.071 135.547 315.139 138.102H305.872C305.683 136.507 305.142 135.256 304.25 134.351C303.372 133.445 302.223 132.992 300.803 132.992C299.654 132.992 298.647 133.316 297.782 133.965C296.917 134.601 296.241 135.547 295.754 136.804C295.281 138.048 295.045 139.589 295.045 141.427C295.045 143.266 295.281 144.82 295.754 146.091C296.241 147.348 296.917 148.301 297.782 148.95C298.647 149.585 299.654 149.903 300.803 149.903C301.722 149.903 302.533 149.707 303.236 149.315C303.953 148.923 304.541 148.348 305.001 147.591C305.46 146.821 305.751 145.888 305.872 144.793H315.139C315.044 147.362 314.402 149.606 313.213 151.525C312.037 153.445 310.381 154.939 308.245 156.006C306.123 157.061 303.601 157.588 300.682 157.588ZM341.279 143.556V125.855H351.174V157H341.725V151.201H341.4C340.711 153.107 339.535 154.621 337.872 155.743C336.223 156.851 334.229 157.406 331.89 157.406C329.768 157.406 327.902 156.919 326.294 155.946C324.685 154.972 323.435 153.614 322.543 151.87C321.65 150.113 321.198 148.058 321.184 145.706V125.855H331.099V143.759C331.113 145.449 331.559 146.78 332.438 147.754C333.316 148.727 334.513 149.214 336.027 149.214C337.014 149.214 337.899 148.997 338.683 148.565C339.481 148.119 340.109 147.477 340.569 146.638C341.042 145.787 341.279 144.759 341.279 143.556ZM358.456 157V125.855H368.087V131.532H368.412C368.979 129.477 369.905 127.95 371.19 126.95C372.474 125.936 373.968 125.429 375.671 125.429C376.13 125.429 376.604 125.463 377.09 125.53C377.577 125.584 378.03 125.672 378.449 125.794V134.411C377.976 134.249 377.354 134.121 376.583 134.026C375.826 133.932 375.15 133.884 374.556 133.884C373.379 133.884 372.318 134.148 371.372 134.675C370.439 135.189 369.703 135.912 369.162 136.845C368.635 137.764 368.371 138.845 368.371 140.089V157H358.456ZM391.069 157.527C389.081 157.527 387.317 157.196 385.776 156.534C384.249 155.858 383.039 154.844 382.147 153.492C381.268 152.127 380.829 150.417 380.829 148.362C380.829 146.632 381.133 145.172 381.741 143.982C382.349 142.793 383.188 141.826 384.255 141.083C385.323 140.339 386.554 139.778 387.946 139.4C389.338 139.008 390.825 138.744 392.407 138.609C394.178 138.447 395.604 138.278 396.685 138.102C397.767 137.913 398.551 137.649 399.037 137.311C399.538 136.96 399.788 136.466 399.788 135.831V135.729C399.788 134.689 399.429 133.884 398.713 133.316C397.997 132.749 397.03 132.465 395.813 132.465C394.502 132.465 393.448 132.749 392.65 133.316C391.853 133.884 391.346 134.668 391.129 135.669L381.984 135.344C382.255 133.452 382.951 131.762 384.073 130.275C385.209 128.774 386.763 127.598 388.737 126.747C390.724 125.882 393.11 125.449 395.894 125.449C397.882 125.449 399.713 125.686 401.39 126.159C403.066 126.618 404.526 127.294 405.769 128.186C407.013 129.065 407.973 130.147 408.649 131.431C409.338 132.715 409.683 134.182 409.683 135.831V157H400.355V152.661H400.112C399.558 153.715 398.848 154.607 397.983 155.337C397.131 156.067 396.124 156.615 394.962 156.98C393.813 157.345 392.515 157.527 391.069 157.527ZM394.13 151.039C395.198 151.039 396.158 150.822 397.01 150.39C397.875 149.957 398.564 149.362 399.078 148.605C399.592 147.835 399.848 146.943 399.848 145.929V142.968C399.565 143.117 399.22 143.252 398.814 143.374C398.422 143.496 397.99 143.61 397.517 143.719C397.044 143.827 396.557 143.921 396.057 144.002C395.557 144.084 395.077 144.158 394.617 144.225C393.684 144.374 392.887 144.604 392.224 144.915C391.575 145.226 391.075 145.631 390.724 146.132C390.386 146.618 390.217 147.199 390.217 147.875C390.217 148.903 390.582 149.687 391.312 150.227C392.055 150.768 392.995 151.039 394.13 151.039ZM434.297 125.855V133.154H414.648V125.855H434.297ZM418.764 118.393H428.68V147.206C428.68 147.815 428.774 148.308 428.964 148.686C429.166 149.051 429.457 149.315 429.836 149.477C430.214 149.626 430.667 149.7 431.194 149.7C431.573 149.7 431.971 149.666 432.39 149.599C432.823 149.518 433.147 149.45 433.364 149.396L434.864 156.554C434.391 156.689 433.722 156.858 432.857 157.061C432.005 157.264 430.985 157.392 429.795 157.446C427.47 157.554 425.476 157.284 423.813 156.635C422.164 155.973 420.9 154.945 420.022 153.553C419.156 152.161 418.737 150.41 418.764 148.301V118.393ZM454.551 157.588C451.293 157.588 448.481 156.946 446.115 155.662C443.763 154.364 441.952 152.519 440.681 150.126C439.424 147.72 438.795 144.861 438.795 141.549C438.795 138.332 439.431 135.52 440.701 133.114C441.972 130.694 443.763 128.815 446.075 127.477C448.386 126.125 451.11 125.449 454.246 125.449C456.463 125.449 458.491 125.794 460.33 126.483C462.168 127.173 463.756 128.193 465.095 129.545C466.433 130.897 467.474 132.566 468.217 134.553C468.961 136.527 469.333 138.791 469.333 141.346V143.82H442.263V138.061H460.107C460.093 137.007 459.843 136.067 459.356 135.243C458.87 134.418 458.2 133.776 457.349 133.316C456.511 132.843 455.544 132.607 454.449 132.607C453.341 132.607 452.347 132.857 451.469 133.357C450.59 133.844 449.894 134.513 449.38 135.364C448.866 136.203 448.596 137.156 448.569 138.224V144.084C448.569 145.354 448.819 146.469 449.319 147.429C449.819 148.376 450.529 149.112 451.448 149.639C452.367 150.167 453.462 150.43 454.733 150.43C455.612 150.43 456.409 150.309 457.126 150.065C457.842 149.822 458.457 149.464 458.971 148.991C459.485 148.517 459.87 147.936 460.127 147.247L469.231 147.51C468.853 149.552 468.021 151.329 466.737 152.843C465.466 154.344 463.797 155.513 461.729 156.351C459.66 157.176 457.268 157.588 454.551 157.588ZM486.743 157.446C484.445 157.446 482.356 156.851 480.477 155.662C478.598 154.472 477.098 152.688 475.976 150.309C474.854 147.929 474.293 144.976 474.293 141.448C474.293 137.784 474.874 134.77 476.037 132.404C477.199 130.038 478.72 128.288 480.599 127.152C482.491 126.017 484.526 125.449 486.702 125.449C488.338 125.449 489.737 125.733 490.9 126.301C492.062 126.855 493.022 127.571 493.779 128.45C494.536 129.329 495.11 130.241 495.502 131.187H495.705V115.473H505.621V157H495.807V151.951H495.502C495.083 152.911 494.489 153.81 493.718 154.648C492.948 155.486 491.981 156.162 490.818 156.676C489.669 157.189 488.311 157.446 486.743 157.446ZM490.19 149.721C491.393 149.721 492.42 149.383 493.272 148.707C494.124 148.017 494.779 147.051 495.239 145.807C495.698 144.563 495.928 143.104 495.928 141.427C495.928 139.724 495.698 138.257 495.239 137.027C494.793 135.797 494.137 134.851 493.272 134.188C492.42 133.526 491.393 133.195 490.19 133.195C488.96 133.195 487.919 133.533 487.067 134.209C486.216 134.885 485.567 135.838 485.121 137.068C484.688 138.298 484.472 139.751 484.472 141.427C484.472 143.104 484.695 144.563 485.141 145.807C485.587 147.051 486.229 148.017 487.067 148.707C487.919 149.383 488.96 149.721 490.19 149.721Z" fill="#F9B02C"/>
</svg>
