<svg width="80" height="26" viewBox="0 0 80 26" fill="none" xmlns="http://www.w3.org/2000/svg">
<g clip-path="url(#clip0_5505_106)">
<path d="M0 10.6015C0 5.57699 4.0732 1.50378 9.09774 1.50378H38.1955V19.6993H9.09774C4.0732 19.6993 0 15.626 0 10.6015Z" fill="#2C4D9A"/>
<path d="M36.0903 1.50378H72.4813C76.6338 1.50378 80.0001 4.87007 80.0001 9.02258V21.9549C80.0001 24.0312 78.317 25.7143 76.2407 25.7143H39.8497C37.7735 25.7143 36.0903 24.0312 36.0903 21.9549V1.50378Z" fill="#2C4D9A"/>
<path d="M39.1255 10.4615H42.3912V23.6376H39.1255V10.4615Z" fill="#F9B02C"/>
<path d="M39.1255 16.9176V3.55347H46.4184V6.55879H42.3912V8.82285H46.2786V11.8282H42.3912V16.9176H39.1255Z" fill="#F9B02C"/>
<path d="M55.3307 3.5536L44.6743 16.9176H49.0906L56.34 7.82589V16.9176H59.7462V3.55341L55.3307 3.5536Z" fill="#F9B02C"/>
<path d="M74.3322 12.3696C76.3566 12.0289 77.6583 10.3856 77.6583 8.18192C77.6583 6.71886 77.0372 5.3765 76.0152 4.51556C75.114 3.77349 74.1722 3.55334 71.9082 3.55334H67.6807V6.55886H72.1883C73.591 6.55886 74.3724 7.20026 74.3724 8.38183C74.3724 9.56417 73.571 10.2655 72.1486 10.2655L67.6807 10.2651V12.5899H70.947L74.0519 16.9177H77.9592L74.3322 12.3696Z" fill="#F9B02C"/>
<path d="M17.0187 9.50539H8.61493V12.399H12.8275C12.4872 13.8033 11.2956 14.6757 9.70004 14.6757C7.21042 14.6757 5.57233 12.9099 5.57233 10.2707C5.57233 7.9946 7.23188 6.29215 9.44481 6.29215C10.7846 6.29215 11.9124 6.9522 12.5508 8.14339H16.6149C15.8065 5.22889 12.7852 3.10077 9.55106 3.10077C5.25312 3.10077 1.95508 6.29215 1.95508 10.4199C1.95508 14.5692 5.25312 17.846 9.46565 17.846C13.785 17.846 17.0617 14.5692 17.0617 10.2284C17.0617 9.99481 17.0402 9.84543 17.0187 9.50539Z" fill="#F9B02C"/>
<path d="M22.9103 6.73969C22.4979 7.97537 22.2895 9.36826 22.2832 10.7437C23.4973 10.8247 24.6226 10.873 25.7331 10.8883V6.88063C24.8381 6.8668 23.9322 6.82089 22.9103 6.73969Z" fill="#F9B02C"/>
<path d="M26.8042 3.15824C26.7215 3.15042 26.6375 3.14542 26.5537 3.1402V6.35143C27.393 6.34581 28.2459 6.31012 29.1949 6.24256C28.6632 4.89238 27.8677 3.77779 26.8042 3.15824Z" fill="#F9B02C"/>
<path d="M25.5065 3.14226C24.4371 3.75539 23.636 4.86696 23.0996 6.21775C24.0518 6.29173 24.8996 6.33444 25.7333 6.34767V3.12982C25.6571 3.13283 25.5817 3.13725 25.5065 3.14226Z" fill="#F9B02C"/>
<path d="M30.0014 10.7879C29.9996 9.40762 29.7945 8.00793 29.3833 6.76562C28.3656 6.83961 27.4548 6.8785 26.5537 6.88412V10.8935C27.6785 10.8923 28.8023 10.8566 30.0014 10.7879Z" fill="#F9B02C"/>
<path d="M26.9626 17.8138C27.8733 17.3958 28.6337 16.5141 29.1672 15.288C28.3139 15.3232 27.4411 15.3409 26.5537 15.3442V17.8498C26.691 17.8413 26.8272 17.8293 26.9626 17.8138Z" fill="#F9B02C"/>
<path d="M30.2212 6.69954C30.6361 7.9633 30.8395 9.36201 30.8444 10.735C31.7003 10.6769 32.6004 10.6037 33.5758 10.5137C33.5758 10.5111 33.5758 10.5083 33.5758 10.5057C33.5758 9.01112 33.1462 7.63709 32.4009 6.48822C31.608 6.57224 30.8893 6.64261 30.2212 6.69954Z" fill="#F9B02C"/>
<path d="M22.2915 11.2802C22.3086 11.8005 22.3547 12.3147 22.4305 12.8132C22.5369 13.5119 22.6975 14.1553 22.9028 14.7376C23.8569 14.7791 24.8001 14.8012 25.733 14.808V11.4219C24.6211 11.4069 23.4977 11.3597 22.2915 11.2802Z" fill="#F9B02C"/>
<path d="M25.3734 17.8382C25.4925 17.8481 25.6125 17.8553 25.7334 17.8602V15.3417C24.8692 15.3353 23.997 15.3162 23.1147 15.2802C23.6584 16.5337 24.4381 17.4292 25.3734 17.8382Z" fill="#F9B02C"/>
<path d="M29.3797 14.7438C29.5862 14.1598 29.748 13.514 29.8545 12.812C29.9281 12.3274 29.9736 11.8278 29.9922 11.3221C28.7943 11.3897 27.6677 11.4255 26.5537 11.4267V14.8104C27.5157 14.8066 28.4594 14.7858 29.3797 14.7438Z" fill="#F9B02C"/>
<path d="M33.5542 11.0536C32.5916 11.1408 31.6936 11.2128 30.8358 11.2701C30.8178 11.8051 30.7733 12.3334 30.6957 12.8429C30.5945 13.5095 30.4465 14.1275 30.2573 14.6939C30.9784 14.651 31.6906 14.6003 32.3835 14.5341C33.0468 13.5252 33.4618 12.34 33.5542 11.0536Z" fill="#F9B02C"/>
<path d="M22.0274 14.6922C21.8388 14.1272 21.6914 13.5098 21.5904 12.8448C21.5107 12.3188 21.4657 11.7731 21.4489 11.2205C20.5617 11.1533 19.6247 11.0707 18.6108 10.9717C18.6868 12.2952 19.1002 13.5116 19.7701 14.543C20.5278 14.6042 21.2794 14.6517 22.0274 14.6922Z" fill="#F9B02C"/>
<path d="M30.0342 6.17736C30.6527 6.12522 31.316 6.06146 32.0434 5.98528C31.1092 4.78428 29.8022 3.88483 28.2734 3.43811C29.0346 4.14849 29.616 5.10146 30.0342 6.17736Z" fill="#F9B02C"/>
<path d="M22.229 15.2378C21.5494 15.2026 20.867 15.1621 20.1792 15.1108C21.0809 16.2402 22.3172 17.0905 23.7586 17.5307C23.1335 16.9635 22.6163 16.1878 22.229 15.2378Z" fill="#F9B02C"/>
<path d="M22.2639 6.1466C22.6962 5.04544 23.3007 4.07521 24.0951 3.36383C22.4857 3.77306 21.1135 4.68394 20.1416 5.93126C20.9177 6.01687 21.6166 6.08804 22.2639 6.1466Z" fill="#F9B02C"/>
<path d="M30.056 15.242C29.6888 16.1415 29.2049 16.8833 28.6235 17.4404C29.9592 16.9797 31.1071 16.1674 31.9614 15.1119C31.3383 15.165 30.7004 15.2063 30.056 15.242Z" fill="#F9B02C"/>
<path d="M19.7844 6.43286C19.0462 7.57011 18.6167 8.93652 18.5991 10.4315C19.6169 10.5313 20.5555 10.6151 21.4424 10.6829C21.4527 9.31507 21.6593 7.92399 22.076 6.66824C21.3802 6.6047 20.6259 6.5267 19.7844 6.43286Z" fill="#F9B02C"/>
<path d="M26.0266 0C22.0905 0 18.7498 1.94927 16.8901 4.96802C17.2442 5.42977 17.5496 5.92641 17.7976 6.45153C19.2892 3.46687 22.36 1.48972 26.0352 1.48972C31.2723 1.48972 35.3481 5.48872 35.3481 10.6173C35.3481 15.7241 31.2723 19.7245 26.0352 19.7245C22.3128 19.7245 19.1878 17.6759 17.7217 14.6314C17.457 15.1448 17.1432 15.6308 16.7847 16.0859C18.6266 19.1836 22.0293 21.2144 26.0266 21.2144C32.1194 21.2144 36.8614 16.56 36.8614 10.6193C36.8614 4.65243 32.1194 0 26.0266 0Z" fill="#F9B02C"/>
<path d="M62.0107 3.55347H65.4165V16.9176H62.0107V3.55347Z" fill="#F9B02C"/>
<path d="M47.0752 23.6947C46.5812 23.6947 46.1574 23.5932 45.8037 23.3899C45.452 23.1866 45.1816 22.904 44.9926 22.5422C44.8036 22.1783 44.709 21.7576 44.709 21.2798C44.709 20.8001 44.8036 20.3794 44.9926 20.0174C45.1837 19.6537 45.455 19.3701 45.8067 19.1667C46.1604 18.9634 46.5822 18.8618 47.0721 18.8618C47.5051 18.8618 47.8822 18.9401 48.2034 19.0967C48.5266 19.2532 48.7786 19.4747 48.9595 19.7613C49.1425 20.046 49.2391 20.3803 49.2493 20.7645H47.8558C47.8273 20.5246 47.746 20.3367 47.6118 20.2004C47.4797 20.0642 47.3069 19.9961 47.0935 19.9961C46.9207 19.9961 46.7693 20.0449 46.6392 20.1425C46.509 20.238 46.4075 20.3803 46.3342 20.5695C46.2631 20.7564 46.2275 20.9881 46.2275 21.2646C46.2275 21.541 46.2631 21.7749 46.3342 21.9658C46.4075 22.155 46.509 22.2983 46.6392 22.3958C46.7693 22.4914 46.9207 22.5391 47.0935 22.5391C47.2317 22.5391 47.3536 22.5096 47.4594 22.4507C47.5672 22.3917 47.6556 22.3054 47.7246 22.1916C47.7938 22.0756 47.8374 21.9355 47.8558 21.7708H49.2493C49.235 22.157 49.1385 22.4944 48.9595 22.7831C48.7827 23.0717 48.5336 23.2964 48.2126 23.457C47.8933 23.6155 47.5143 23.6947 47.0752 23.6947ZM53.18 21.5848V18.9228H54.6679V23.6063H53.247V22.7343H53.1983C53.0946 23.0209 52.9177 23.2486 52.6678 23.4173C52.4197 23.584 52.12 23.6673 51.7682 23.6673C51.4491 23.6673 51.1685 23.5941 50.9267 23.4478C50.6848 23.3015 50.4967 23.0971 50.3625 22.8349C50.2284 22.5707 50.1603 22.2616 50.1583 21.9079V18.9228H51.6493V21.6153C51.6514 21.8693 51.7185 22.0696 51.8505 22.2159C51.9827 22.3622 52.1625 22.4355 52.3902 22.4355C52.5386 22.4355 52.6718 22.403 52.7897 22.3379C52.9096 22.2708 53.0042 22.1743 53.0733 22.0482C53.1445 21.9201 53.18 21.7657 53.18 21.5848ZM55.763 23.6063V18.9228H57.2114V19.7767H57.2601C57.3455 19.4676 57.4848 19.2379 57.6779 19.0875C57.8709 18.935 58.0956 18.8588 58.3517 18.8588C58.4209 18.8588 58.492 18.8639 58.5652 18.8741C58.6383 18.8822 58.7064 18.8953 58.7694 18.9137V20.2096C58.6983 20.1852 58.6048 20.1658 58.489 20.1517C58.3751 20.1374 58.2735 20.1304 58.184 20.1304C58.0072 20.1304 57.8476 20.1699 57.7054 20.2492C57.5651 20.3264 57.4542 20.4352 57.373 20.5755C57.2936 20.7137 57.2541 20.8764 57.2541 21.0633V23.6063H55.763ZM60.6672 23.6857C60.3684 23.6857 60.1031 23.6358 59.8714 23.5362C59.6416 23.4346 59.4598 23.2821 59.3255 23.0789C59.1935 22.8735 59.1273 22.6164 59.1273 22.3073C59.1273 22.0472 59.1732 21.8276 59.2646 21.6489C59.3561 21.4699 59.4821 21.3245 59.6427 21.2128C59.8033 21.1009 59.9882 21.0165 60.1977 20.9597C60.407 20.9007 60.6306 20.861 60.8685 20.8407C61.1347 20.8164 61.3493 20.791 61.5118 20.7645C61.6744 20.7361 61.7923 20.6964 61.8655 20.6455C61.9407 20.5928 61.9783 20.5186 61.9783 20.423V20.4078C61.9783 20.2513 61.9245 20.1304 61.8168 20.0449C61.709 19.9595 61.5637 19.9168 61.3807 19.9168C61.1836 19.9168 61.0249 19.9595 60.9051 20.0449C60.7851 20.1304 60.7088 20.2482 60.6764 20.3986L59.3012 20.3499C59.3419 20.0652 59.4466 19.8111 59.6153 19.5875C59.786 19.3619 60.0198 19.1851 60.3165 19.057C60.6155 18.9269 60.9741 18.8618 61.3929 18.8618C61.6917 18.8618 61.9672 18.8974 62.2192 18.9686C62.4712 19.0377 62.6908 19.1394 62.8779 19.2735C63.0649 19.4055 63.2091 19.5682 63.3108 19.7613C63.4145 19.9544 63.4664 20.175 63.4664 20.423V23.6063H62.0637V22.9538H62.0272C61.9439 23.1125 61.8371 23.2466 61.707 23.3564C61.5789 23.4661 61.4275 23.5484 61.2526 23.6033C61.0798 23.6582 60.8848 23.6857 60.6672 23.6857ZM61.1276 22.7099C61.2882 22.7099 61.4326 22.6774 61.5606 22.6123C61.6908 22.5473 61.7944 22.4579 61.8717 22.344C61.9488 22.2281 61.9875 22.094 61.9875 21.9415V21.4964C61.9448 21.5186 61.893 21.5391 61.832 21.5573C61.773 21.5756 61.7079 21.5929 61.6368 21.6092C61.5657 21.6254 61.4926 21.6397 61.4173 21.6519C61.3421 21.664 61.2699 21.6752 61.2009 21.6854C61.0606 21.7078 60.9406 21.7422 60.841 21.789C60.7434 21.8358 60.6682 21.8968 60.6155 21.972C60.5646 22.0452 60.5392 22.1326 60.5392 22.2343C60.5392 22.3887 60.5941 22.5066 60.7039 22.5879C60.8156 22.6693 60.957 22.7099 61.1276 22.7099ZM67.1676 18.9228V20.0206H64.213V18.9228H67.1676ZM64.832 17.8007H66.323V22.1337C66.323 22.2251 66.3373 22.2992 66.3657 22.3562C66.3962 22.4111 66.44 22.4507 66.4968 22.4752C66.5538 22.4974 66.6219 22.5087 66.7012 22.5087C66.758 22.5087 66.818 22.5036 66.881 22.4934C66.9461 22.4812 66.9948 22.4711 67.0273 22.463L67.253 23.5392C67.1819 23.5597 67.0813 23.5849 66.9512 23.6155C66.8231 23.646 66.6696 23.6652 66.4908 23.6735C66.1412 23.6898 65.8413 23.649 65.5912 23.5514C65.3433 23.4519 65.1532 23.2974 65.021 23.0879C64.8909 22.8786 64.8279 22.6153 64.832 22.2983V17.8007ZM70.2133 23.6947C69.7234 23.6947 69.3007 23.5982 68.9449 23.4051C68.5912 23.2099 68.3189 22.9325 68.1278 22.5728C67.9388 22.2108 67.8442 21.7809 67.8442 21.2828C67.8442 20.7991 67.9397 20.3762 68.1308 20.0144C68.3219 19.6505 68.5912 19.3679 68.9389 19.1667C69.2864 18.9634 69.6961 18.8618 70.1676 18.8618C70.501 18.8618 70.806 18.9137 71.0824 19.0174C71.3589 19.121 71.5977 19.2746 71.7989 19.4777C72.0003 19.681 72.1567 19.9322 72.2685 20.231C72.3803 20.5276 72.4362 20.8682 72.4362 21.2525V21.6243H68.3655V20.7585H71.0488C71.0469 20.5998 71.0093 20.4586 70.9361 20.3346C70.8628 20.2107 70.7622 20.1141 70.6343 20.0449C70.5081 19.9738 70.3628 19.9382 70.1982 19.9382C70.0314 19.9382 69.8821 19.9758 69.7499 20.051C69.6179 20.1242 69.513 20.2248 69.4359 20.3529C69.3586 20.4789 69.318 20.6222 69.314 20.7828V21.664C69.314 21.8552 69.3515 22.0228 69.4267 22.1672C69.5019 22.3095 69.6087 22.4203 69.7469 22.4995C69.8851 22.5788 70.0497 22.6185 70.2409 22.6185C70.3729 22.6185 70.4929 22.6001 70.6006 22.5636C70.7084 22.5269 70.8009 22.4731 70.8782 22.4019C70.9553 22.3308 71.0133 22.2434 71.0518 22.1397L72.421 22.1794C72.364 22.4863 72.2391 22.7537 72.046 22.9813C71.8549 23.2069 71.6039 23.3827 71.2927 23.5089C70.9818 23.6328 70.6219 23.6947 70.2133 23.6947ZM75.0542 23.6735C74.7087 23.6735 74.3947 23.584 74.1121 23.4051C73.8296 23.2263 73.6039 22.9579 73.4351 22.6001C73.2664 22.2424 73.1821 21.7982 73.1821 21.2676C73.1821 20.7168 73.2696 20.2634 73.4443 19.9076C73.6192 19.552 73.8479 19.2887 74.1305 19.118C74.415 18.9472 74.721 18.8618 75.0482 18.8618C75.2943 18.8618 75.5046 18.9045 75.6794 18.9899C75.8542 19.0732 75.9986 19.181 76.1124 19.3131C76.2263 19.4452 76.3126 19.5825 76.3715 19.7248H76.4021V17.3616H77.893V23.6063H76.4173V22.847H76.3715C76.3085 22.9914 76.2191 23.1266 76.1033 23.2526C75.9873 23.3786 75.8421 23.4803 75.6672 23.5576C75.4944 23.6349 75.2902 23.6735 75.0542 23.6735ZM75.5727 22.5117C75.7537 22.5117 75.9081 22.4609 76.0362 22.3592C76.1642 22.2556 76.2628 22.1102 76.332 21.9233C76.401 21.7362 76.4356 21.5167 76.4356 21.2646C76.4356 21.0084 76.401 20.7879 76.332 20.603C76.2648 20.4179 76.1663 20.2756 76.0362 20.1761C75.9081 20.0764 75.7537 20.0266 75.5727 20.0266C75.3876 20.0266 75.2312 20.0774 75.1031 20.1791C74.975 20.2807 74.8774 20.424 74.8103 20.609C74.7454 20.794 74.7127 21.0125 74.7127 21.2646C74.7127 21.5167 74.7464 21.7362 74.8135 21.9233C74.8806 22.1102 74.9771 22.2556 75.1031 22.3592C75.2312 22.4609 75.3876 22.5117 75.5727 22.5117Z" fill="white"/>
</g>
<defs>
<clipPath id="clip0_5505_106">
<rect width="80" height="25.7143" fill="white"/>
</clipPath>
</defs>
</svg>
